<?xml version="1.0" encoding="UTF-8" standalone="no"?>
<svg
   xmlns:dc="http://purl.org/dc/elements/1.1/"
   xmlns:cc="http://creativecommons.org/ns#"
   xmlns:rdf="http://www.w3.org/1999/02/22-rdf-syntax-ns#"
   xmlns:svg="http://www.w3.org/2000/svg"
   xmlns="http://www.w3.org/2000/svg"
   xmlns:sodipodi="http://sodipodi.sourceforge.net/DTD/sodipodi-0.dtd"
   xmlns:inkscape="http://www.inkscape.org/namespaces/inkscape"
   width="2473"
   height="1336"
   viewBox="0 0 654.31457 353.48334"
   version="1.1"
   id="svg8"
   inkscape:version="1.0.2 (e86c870879, 2021-01-15)"
   sodipodi:docname="map.svg">
  <defs
     id="defs2" />
  <sodipodi:namedview
     id="base"
     pagecolor="#ffffff"
     bordercolor="#666666"
     borderopacity="1.0"
     inkscape:pageopacity="0.0"
     inkscape:pageshadow="2"
     inkscape:zoom="0.70710678"
     inkscape:cx="1133.1765"
     inkscape:cy="667.40079"
     inkscape:document-units="px"
     inkscape:current-layer="layer1"
     inkscape:document-rotation="0"
     showgrid="false"
     units="px"
     inkscape:window-width="2560"
     inkscape:window-height="1412"
     inkscape:window-x="0"
     inkscape:window-y="0"
     inkscape:window-maximized="1" />
  <metadata
     id="metadata5">
    <rdf:RDF>
      <cc:Work
         rdf:about="">
        <dc:format>image/svg+xml</dc:format>
        <dc:type
           rdf:resource="http://purl.org/dc/dcmitype/StillImage" />
        <dc:title></dc:title>
      </cc:Work>
    </rdf:RDF>
  </metadata>
  <g
     inkscape:label="Layer 1"
     inkscape:groupmode="layer"
     id="layer1">
    <g
       id="g863"
       style="fill:#0000fd;fill-opacity:0.18123329">
      <path
         style="fill:#0000fd;stroke:none;stroke-width:0.264583px;stroke-linecap:butt;stroke-linejoin:miter;stroke-opacity:1;fill-opacity:0.18123329"
         d="M 0,0 H 654.31458 L 584.36263,48.233157 511.06509,84.870495 341.58475,117.92645 234.21971,86.529078 207.20333,74.883472 151.54853,81.289294 126.62018,95.116223 0,0"
         id="path857" />
      <path
         style="fill:#0000fd;stroke:none;stroke-width:0.264583px;stroke-linecap:butt;stroke-linejoin:miter;stroke-opacity:1;fill-opacity:0.18123329"
         d="M 0,0 126.62018,95.116223 282.84527,298.55961 331.76892,272.24648 403.57798,208.43737 522.14758,97.407766 584.36263,48.233157 654.31458,0 V 353.48333 H 0 V 0"
         id="path859" />
    </g>
    <path
       style="fill:none;stroke:#00feff;stroke-width:1.05833333;stroke-linecap:butt;stroke-linejoin:miter;stroke-opacity:1;stroke-miterlimit:4;stroke-dasharray:none"
       d="m 126.62018,95.116223 24.92835,-13.826929 55.6548,-6.405822 27.01638,11.645606 107.36504,31.397372 169.48034,-33.055955 73.29754,-36.637338 -62.21505,49.174609 -118.5696,111.029604 -71.80906,63.80911 -48.92365,26.31313 -97.48946,-126.39654 z"
       id="path855" />
    <path
       style="fill:#ffff00;stroke:#fffd00;stroke-width:1.05833333;stroke-linecap:butt;stroke-linejoin:miter;stroke-opacity:1;stroke-miterlimit:4;stroke-dasharray:none;fill-opacity:0.10047316"
       d="m 331.76892,272.24648 -25.92078,-38.26317 78.22041,-53.06126 19.50943,27.51532 z"
       id="path24" />
    <path
       style="fill:#ffff00;stroke:#ffff00;stroke-width:1.05833333;stroke-linecap:butt;stroke-linejoin:miter;stroke-opacity:1;fill-opacity:0.10047316;stroke-miterlimit:4;stroke-dasharray:none"
       d="M 403.57798,208.43737 341.58475,117.92645 511.06509,84.870495 522.14758,97.407766 403.57798,208.43737"
       id="path849" />
    <path
       style="fill:#ffff00;stroke:#ffff00;stroke-width:1.05833333;stroke-linecap:butt;stroke-linejoin:miter;stroke-opacity:1;stroke-miterlimit:4;stroke-dasharray:none;fill-opacity:0.10047316"
       d="m 315.0295,272.82449 -32.18423,25.73512 -97.48946,-126.39654 58.81349,-6.4264 2.24506,13.01552 z"
       id="path851" />
    <path
       style="fill:#ffff00;stroke:#ffff00;stroke-width:1.05833333;stroke-linecap:butt;stroke-linejoin:miter;stroke-opacity:1;fill-opacity:0.10047316;stroke-miterlimit:4;stroke-dasharray:none"
       d="m 185.35581,172.16307 -58.73563,-77.046845 24.92835,-13.826931 55.6548,-6.405822 27.01638,11.645606 37.59704,53.931232 -21.01083,13.35071 -6.63662,11.92565 z"
       id="path853" />
    <path
       style="fill:#00b500;stroke:none;stroke-width:0.264583px;stroke-linecap:butt;stroke-linejoin:miter;stroke-opacity:1;fill-opacity:0.23465762"
       d="m 282.84527,298.55961 32.18423,-25.73512 -68.61514,-94.0723 -2.24506,-13.01552 6.63662,-11.92565 21.01083,-13.35071 -37.59704,-53.931232 107.36504,31.397372 42.4838,62.9956 -78.22041,53.06126 25.92078,38.26317 -48.92365,26.31313"
       id="path865" />
  </g>
</svg>
